<svg xmlns="http://www.w3.org/2000/svg" width="294" height="57.172" viewBox="0 0 294 57.172">
  <g id="logo" transform="translate(0)">
    <g id="Grupo_990" data-name="Grupo 990">
      <path id="Caminho_5798" data-name="Caminho 5798" d="M48.354.562c0-.169-.036-.337-.061-.562-.159.088-.246.131-.329.182-1.6.987-3.2,1.967-4.793,2.964-2.667,1.67-5.317,3.365-7.992,5.02a4.544,4.544,0,0,0-2.318,4.163q.031,13.168,0,26.336a13.975,13.975,0,0,1-.312,2.954,14.188,14.188,0,0,1-20.5,9.587A13.374,13.374,0,0,1,4.415,38.819c-.082-8.48-.019-16.961-.029-25.441a.851.851,0,0,1,.449-.84c1.842-1.135,3.667-2.3,5.5-3.45.105-.066.224-.112.411-.2v.7q0,13.143,0,26.286a10.759,10.759,0,0,0,.093,1.583,11.074,11.074,0,0,0,7.814,9.362,4.271,4.271,0,0,0,.437.1.72.72,0,0,0-.047-.139c-.076-.109-.155-.215-.234-.321a17.761,17.761,0,0,1-3.693-10.948q.023-16.895.005-33.789v-.7a2.356,2.356,0,0,0-.227.1c-4.339,2.73-8.69,5.444-13.01,8.2A3.975,3.975,0,0,0,0,12.864C0,21.576-.015,30.289.026,39A17.625,17.625,0,0,0,.5,42.929,18.519,18.519,0,0,0,20.606,57.07,18.046,18.046,0,0,0,31.655,51.9a18.055,18.055,0,0,0,5.6-13.33c.029-8.679.011-17.359,0-26.038a.848.848,0,0,1,.467-.826c1.8-1.111,3.583-2.246,5.373-3.369.145-.091.3-.164.52-.283V8.8q0,16.472,0,32.945a18.339,18.339,0,0,1-3.439,10.8c-.087.123-.162.254-.26.408a.509.509,0,0,0,.118,0,14,14,0,0,0,8.041-11.815c.2-2.256.234-4.528.281-6.794.073-3.525.124-7.052.126-10.578,0-5.647-.04-11.293-.068-16.94-.01-2.086-.032-4.173-.052-6.259" transform="translate(0)" fill="#fff"/>
      <g id="Grupo_989" data-name="Grupo 989" transform="translate(72.425 9.549)">
        <path id="Caminho_5799" data-name="Caminho 5799" d="M499.425,84.432a10.079,10.079,0,0,0-2.588-5.99c-3.139-3.348-7.008-3.854-11.254-2.875a11.312,11.312,0,0,0-6.466,4.366,10.145,10.145,0,0,0-8.387-4.78,11.344,11.344,0,0,0-9.3,3.621v-2.79h-5.621V102.69H461.5v-1.446c0-3.971-.073-7.944.036-11.912a15.409,15.409,0,0,1,.8-4.649,6.429,6.429,0,0,1,7.446-4.206c3.071.554,4.906,2.976,4.909,6.492q.006,7.211,0,14.422v1.3h5.775v-1.452c0-3.971-.073-7.944.036-11.912a15.106,15.106,0,0,1,.805-4.648,6.522,6.522,0,0,1,7.467-4.211c3.09.489,4.986,2.937,5,6.546.023,4.724.006,9.447.006,14.171v1.539h5.692c0-5.678,0-11.232,0-16.786a13.518,13.518,0,0,0-.051-1.5" transform="translate(-417.491 -66.567)" fill="#fff"/>
        <path id="Caminho_5800" data-name="Caminho 5800" d="M329.272,39.619h-5.806v1.518c0,6.269.014,12.538-.014,18.806a14.635,14.635,0,0,1-.312,3.231c-2.01,8.637-10.643,9.446-15.262,5.742-2.838-2.276-3.775-5.443-3.791-8.923-.029-6.311-.008-12.621-.008-18.932V39.636h-5.871c0,7.393-.318,14.72.083,22.008.465,8.443,5.356,13.7,13.128,14.765,5.065.7,9.727-.3,13.446-4.136a16.262,16.262,0,0,0,4.487-11.636c.065-6.644.018-13.29.013-19.935,0-.358-.059-.716-.092-1.083" transform="translate(-298.087 -39.619)" fill="#fff"/>
        <path id="Caminho_5801" data-name="Caminho 5801" d="M800.442,75.156A12.244,12.244,0,0,0,793.211,79V75.863h-5.564V102.6h5.571v-1.412c0-3.426-.03-6.852.011-10.278a14.33,14.33,0,0,1,1.352-6.809,7.382,7.382,0,0,1,8-3.709,6.171,6.171,0,0,1,5.018,6.235c.162,4.84.087,9.689.118,14.534,0,.479.042.958.065,1.468h5.61c.022-.459.054-.824.054-1.19,0-5.139.018-10.278,0-15.417-.028-7.278-5.768-12.038-13-10.871" transform="translate(-668.702 -66.458)" fill="#fff"/>
        <path id="Caminho_5802" data-name="Caminho 5802" d="M922.165,70.7c-3.472,1.459-7.6.675-7.425-4.773.081-2.588.014-5.181.014-7.771V53.766h9.151V49h-9.21V39.763H909.02v9.35h-5.71v4.671h5.71c0,.669,0,1.162,0,1.655.014,4.22-.064,8.442.076,12.658a8.285,8.285,0,0,0,3.836,7.111c3.491,2.221,9.132,1.907,12.577-.7l-1.712-4.6c-.652.319-1.13.582-1.631.793" transform="translate(-756.263 -39.728)" fill="#fff"/>
        <path id="Caminho_5803" data-name="Caminho 5803" d="M1147.572,78.073a13.435,13.435,0,0,0-5.3,4.772V77.5H1136.6v26.787c1.649,0,3.206,0,4.762,0,.248,0,.5-.04.918-.077,0-2.366-.038-4.616.011-6.864a43.635,43.635,0,0,1,.327-6.24c.679-4.047,2.792-7.06,7.051-8.072,1.131-.269,2.341-.189,3.5-.358.349-.051.909-.373.937-.62.179-1.563.236-3.139.339-4.819a12.7,12.7,0,0,0-6.871.837" transform="translate(-932.868 -68.074)" fill="#fff"/>
        <path id="Caminho_5804" data-name="Caminho 5804" d="M1012.263,77.728c-8.38,0-14.835,6.239-14.577,14.566.239,7.7,6.457,13.64,14.67,13.612,8.383-.029,14.446-6.11,14.414-14.46-.029-7.784-6.349-13.761-14.507-13.718m.03,23.264a9.19,9.19,0,1,1,8.966-9.187,9.079,9.079,0,0,1-8.966,9.187" transform="translate(-827.703 -68.544)" fill="#fff"/>
        <path id="Caminho_5805" data-name="Caminho 5805" d="M680.271,88.994A13.563,13.563,0,0,0,664.8,77.266c-10.493,1.638-14.3,12.107-10.642,20.39,2.742,6.216,9.581,9.169,16.481,7.44a12.6,12.6,0,0,0,9.1-8.028c-1.283-.286-2.484-.5-3.649-.83a1.688,1.688,0,0,0-2.215.853,8.406,8.406,0,0,1-9.378,3.191,8.244,8.244,0,0,1-5.859-7.59h21.893c-.09-1.315-.133-2.511-.261-3.7m-21.429-.351c.389-3.45,3.846-6.464,7.906-6.464a7.4,7.4,0,0,1,7.68,6.464Z" transform="translate(-566.623 -68.074)" fill="#fff"/>
      </g>
    </g>
  </g>
</svg>
